<svg version="1.1" id="Layer_1" xmlns="http://www.w3.org/2000/svg" xmlns:xlink="http://www.w3.org/1999/xlink" x="0px" y="0px"
	 width="100%" viewBox="0 0 1024 572" enable-background="new 0 0 1024 572" xml:space="preserve">
<path fill="none" opacity="1.000000" stroke="#000000" stroke-linecap="round" stroke-linejoin="round" stroke-width="11.000000"
	d="
M395.000000,290.500000 
	C391.801819,287.479736 390.866882,284.229340 391.122314,279.479675 
	C391.368256,274.906921 388.784332,270.051880 386.954285,265.518463 
	C374.174927,233.861328 353.381012,209.344833 322.492584,194.014969 
	C298.113464,181.915649 272.526947,177.954254 245.484985,181.897049 
	C220.329208,185.564835 198.720276,196.112610 179.431366,212.418808 
	C164.920578,224.685745 154.097351,239.656662 146.170258,256.579742 
	C139.640060,270.520721 135.990677,285.497406 134.991043,300.999420 
	C132.978073,332.215942 140.555069,360.755951 158.484802,386.510590 
	C177.286240,413.517303 203.103622,430.477814 234.557724,438.781311 
	C242.871292,440.975983 251.674698,442.292847 260.501740,442.067688 
	C261.933319,442.031189 264.482239,440.702179 264.500000,444.000000 
"/>
<path fill="none" opacity="1.000000" stroke="#000000" stroke-linecap="round" stroke-linejoin="round" stroke-width="7.000000"
	d="
M842.000000,358.500000 
	C844.005066,369.434082 839.439697,373.041138 830.000305,373.075958 
	C813.499268,373.136810 796.967102,374.471252 780.508240,373.798218 
	C759.495789,372.938904 738.458801,373.974121 717.512817,372.775940 
	C698.817383,371.706543 680.126953,373.076050 661.509827,371.850342 
	C641.493713,370.532501 621.472839,371.908691 601.507324,370.860413 
	C582.003540,369.836365 562.500854,369.924805 543.003601,369.372803 
	C526.162048,368.895966 509.332703,369.242462 492.499878,369.009644 
	C477.167145,368.797516 461.833557,368.638397 446.499878,368.515198 
	C441.035065,368.471283 440.599091,369.035431 440.484283,374.499664 
	C440.396698,378.667999 439.965759,382.838013 440.062195,386.998566 
	C440.142365,390.458344 438.478302,391.121918 435.498871,391.043274 
	C429.836151,390.893768 424.166626,391.013031 418.500000,390.996521 
	C412.120270,390.977936 410.849152,388.732910 414.021942,383.012177 
	C414.532227,382.092102 415.333313,381.333313 415.999969,380.499969 
"/>
<path fill="none" opacity="1.000000" stroke="#000000" stroke-linecap="round" stroke-linejoin="round" stroke-width="8.000000"
	d="
M512.500000,320.500000 
	C513.022156,315.605377 511.574097,311.900391 508.235107,307.808167 
	C502.548065,300.838074 498.457306,292.584259 493.441925,285.038605 
	C491.292603,281.804962 489.394623,278.254486 485.846130,275.727814 
	C481.130249,278.241547 477.348114,281.979248 473.565155,285.568665 
	C469.195953,289.714355 464.753906,292.968201 458.543488,294.216309 
	C454.152222,295.098816 450.166687,298.000000 446.000000,300.000000 
"/>
<path fill="none" opacity="1.000000" stroke="#000000" stroke-linecap="round" stroke-linejoin="round" stroke-width="15.000000"
	d="
M404.000000,349.250000 
	C411.606415,351.955933 419.187408,353.865936 427.492554,354.190674 
	C471.994781,355.930725 516.506165,354.225952 560.998413,355.083649 
	C591.999268,355.681244 622.998596,355.801971 653.998535,356.136932 
	C664.161255,356.246704 674.353394,356.800720 684.496216,356.403564 
	C711.674011,355.339386 738.832275,356.730042 766.000366,356.675201 
	C784.992371,356.636871 804.000488,356.802856 822.999512,357.040222 
	C829.169373,357.117310 835.330383,357.747467 841.501038,357.970581 
	C845.378296,358.110718 848.329407,355.265259 851.978088,354.406830 
	C856.734375,353.287750 861.408386,351.696594 865.980957,349.950195 
	C871.677124,347.774628 876.995911,344.995911 878.000000,338.000000 
"/>
<path fill="none" opacity="1.000000" stroke="#000000" stroke-linecap="round" stroke-linejoin="round" stroke-width="11.000000"
	d="
M360.000000,294.000000 
	C361.166687,292.166687 362.305634,290.315002 363.505127,288.503387 
	C367.354065,282.690369 367.027985,276.343048 364.390747,270.549744 
	C354.089478,247.920517 339.407959,229.188919 317.084686,216.846802 
	C305.185089,210.267715 292.908051,205.912445 279.510284,203.930389 
	C248.348801,199.320358 221.008835,207.725754 196.464417,226.954590 
	C182.706451,237.732956 173.136002,251.595398 165.541626,267.020508 
	C163.283554,271.606903 162.688339,276.518738 164.500000,281.500000 
"/>
<path fill="none" opacity="1.000000" stroke="#000000" stroke-linecap="round" stroke-linejoin="round" stroke-width="12.000000"
	d="
M888.500000,332.000000 
	C884.036072,335.286896 879.816956,339.253784 873.475037,336.558716 
	C872.486816,336.138763 871.166687,336.500000 870.000000,336.500000 
	C820.833313,336.500000 771.666626,336.554993 722.500061,336.477753 
	C696.333130,336.436646 670.166626,336.177979 644.000122,335.984192 
	C641.082642,335.962585 638.440491,336.158752 635.933228,338.166565 
	C633.523071,340.096588 630.547974,341.182617 627.500000,339.000000 
"/>
<path fill="none" opacity="1.000000" stroke="#000000" stroke-linecap="round" stroke-linejoin="round" stroke-width="10.000000"
	d="
M284.500000,414.000000 
	C292.549072,419.332245 299.835693,415.749329 305.457947,408.467529 
	C307.227478,406.175629 308.500000,403.500000 310.000000,401.000000 
"/>
<path fill="none" opacity="1.000000" stroke="#000000" stroke-linecap="round" stroke-linejoin="round" stroke-width="21.000000"
	d="
M324.500000,250.000000 
	C322.720490,243.701675 317.591064,240.287674 312.431641,237.632843 
	C300.750305,231.622070 288.328369,227.731812 275.000366,227.479980 
	C274.497406,227.470474 274.000000,227.166656 273.500000,226.999985 
"/>
<path fill="none" opacity="1.000000" stroke="#000000" stroke-linecap="round" stroke-linejoin="round" stroke-width="13.000000"
	d="
M187.000000,268.000000 
	C183.562973,270.157532 180.343567,272.594543 177.504272,275.504181 
	C175.354385,277.707306 172.878036,280.121399 169.987976,280.343506 
	C162.074402,280.951660 160.748993,287.097748 160.195587,292.519958 
	C158.631470,307.845306 159.127304,323.159912 161.273773,338.531586 
	C162.669434,348.526367 166.483139,357.106720 171.465408,365.520477 
	C173.687485,369.272949 177.256714,371.425049 180.504211,373.994690 
	C180.973907,374.366333 181.497192,374.953400 182.000412,374.958282 
	C196.720016,375.102325 210.863556,380.441345 225.498108,380.302002 
	C237.938095,380.183563 249.603973,385.238861 262.000854,384.514832 
	C263.827972,384.408142 265.666656,384.500000 267.500000,384.500000 
"/>
<path fill="none" opacity="1.000000" stroke="#000000" stroke-linecap="round" stroke-linejoin="round" stroke-width="11.000000"
	d="
M626.000000,338.000000 
	C624.088562,335.856750 621.578064,335.974976 619.000000,335.976013 
	C546.500000,336.005859 474.000000,336.000000 401.500000,336.000000 
"/>
<path fill="none" opacity="1.000000" stroke="#000000" stroke-linecap="round" stroke-linejoin="round" stroke-width="11.000000"
	d="
M400.000000,347.000000 
	C394.551880,350.248810 389.821289,354.438812 385.025208,358.529572 
	C383.654175,359.698944 382.077881,360.763458 381.966003,362.998291 
	C381.466370,372.978180 375.300842,380.517792 369.842102,387.882965 
	C351.262390,412.951508 327.108551,430.241699 296.516998,438.066467 
	C286.789185,440.554688 277.008881,441.955811 267.000061,442.012604 
	C266.316345,442.016479 265.502838,441.678009 265.000000,442.500000 
"/>
<path fill="none" opacity="1.000000" stroke="#000000" stroke-linecap="round" stroke-linejoin="round" stroke-width="17.000000"
	d="
M301.500000,256.750000 
	C298.701630,257.904816 296.042480,256.650208 293.519745,255.930725 
	C264.985565,247.792450 234.338043,263.483063 225.984207,291.995361 
	C223.252106,301.320190 221.041168,310.883270 222.680252,320.469177 
	C224.653732,332.010590 227.813660,343.501831 236.065155,352.439850 
	C243.924408,360.953033 253.269760,367.213715 264.986389,369.567719 
	C274.263702,371.431610 283.303162,371.296326 292.529846,369.126953 
	C297.539246,367.949127 300.888184,365.520874 303.018311,361.008636 
	C303.908295,359.123383 305.000031,357.333344 306.000031,355.500000 
"/>
<path fill="none" opacity="1.000000" stroke="#000000" stroke-linecap="round" stroke-linejoin="round" stroke-width="6.000000"
	d="
M472.500000,283.000000 
	C471.053589,281.081299 468.959473,281.508789 467.000000,281.505188 
	C459.833344,281.492096 452.665680,281.431671 445.500458,281.533264 
	C442.588257,281.574585 441.379272,280.681854 441.420288,277.498962 
	C441.510468,270.502289 440.972137,263.496826 441.086456,256.501404 
	C441.139313,253.266586 439.750061,252.522095 437.000366,252.477814 
	C431.165833,252.383881 425.334259,252.091599 419.499756,252.021378 
	C413.813995,251.952942 412.481842,254.069626 415.026611,258.986237 
	C415.507660,259.915619 416.333344,260.666656 417.000000,261.500000 
"/>
<path fill="none" opacity="1.000000" stroke="#000000" stroke-linecap="round" stroke-linejoin="round" stroke-width="8.000000"
	d="
M599.000000,208.000000 
	C598.000793,211.258453 598.494812,214.695236 597.622681,218.032074 
	C596.849121,220.991577 600.217346,222.945145 600.589050,225.989120 
	C601.671448,234.853104 603.270569,243.652649 604.465027,252.504715 
	C605.323120,258.864594 605.014465,265.681122 607.691895,271.410309 
	C612.956177,282.674591 608.957886,294.182007 610.000000,305.500000 
"/>
<path fill="none" opacity="1.000000" stroke="#000000" stroke-linecap="round" stroke-linejoin="round" stroke-width="14.000000"
	d="
M291.500000,384.500000 
	C287.417206,393.660431 278.571289,394.184906 270.495148,395.978119 
	C254.148956,399.607666 237.531860,398.297485 221.000000,398.500031 
	C218.406387,398.531799 215.792938,398.197052 213.456299,399.941467 
	C212.737732,400.477936 211.755569,400.631134 210.458725,400.100952 
	C201.747284,396.539581 192.547272,394.158478 185.892807,386.594299 
	C182.930557,383.227112 181.324036,379.852295 181.500000,375.500000 
"/>
<path fill="none" opacity="1.000000" stroke="#000000" stroke-linecap="round" stroke-linejoin="round" stroke-width="9.000000"
	d="
M212.000000,401.000000 
	C212.758942,406.096558 216.081772,408.979462 220.495193,411.010437 
	C234.397736,417.408203 249.055038,418.197113 264.001129,417.014130 
	C267.326813,416.750854 270.665558,416.639465 274.000214,416.505188 
	C283.847809,416.108643 288.396881,409.376251 292.000000,401.500000 
"/>
<path fill="none" opacity="1.000000" stroke="#000000" stroke-linecap="round" stroke-linejoin="round" stroke-width="18.000000"
	d="
M618.500000,282.500000 
	C618.333313,290.833344 618.175842,299.166840 617.997131,307.499939 
	C617.853455,314.203308 613.004639,318.004913 606.013000,316.441895 
	C598.857849,314.842377 592.286499,311.300629 587.772461,305.777313 
	C585.397156,302.870880 585.804016,297.672241 585.006409,293.498779 
	C583.587952,286.077301 586.538574,279.148163 587.593323,272.013794 
	C587.811768,270.536072 588.537903,269.082489 588.500000,267.500000 
"/>
<path fill="none" opacity="1.000000" stroke="#000000" stroke-linecap="round" stroke-linejoin="round" stroke-width="11.000000"
	d="
M285.500000,320.500000 
	C282.046722,323.541168 278.012512,324.182037 273.498199,324.076416 
	C263.170532,323.834717 252.830536,324.144226 242.501068,323.944580 
	C236.537598,323.829285 230.773468,324.809479 225.000000,326.000000 
"/>
<path fill="none" opacity="1.000000" stroke="#000000" stroke-linecap="round" stroke-linejoin="round" stroke-width="17.000000"
	d="
M254.500000,276.500000 
	C261.595184,275.064972 268.673157,273.961395 276.004608,274.427338 
	C286.724792,275.108643 295.818085,279.301239 303.408569,286.595154 
	C305.946381,289.033813 308.425079,291.574921 311.000000,294.000000 
"/>
<path fill="none" opacity="1.000000" stroke="#000000" stroke-linecap="round" stroke-linejoin="round" stroke-width="11.000000"
	d="
M225.000000,301.000000 
	C230.773468,302.190521 236.538300,303.146515 242.500854,303.056976 
	C254.998032,302.869263 267.500000,303.005676 280.000000,302.993958 
	C281.917847,302.992188 283.941162,303.374420 285.500000,301.750000 
"/>
<path fill="none" opacity="1.000000" stroke="#000000" stroke-linecap="round" stroke-linejoin="round" stroke-width="10.000000"
	d="
M172.500000,347.500000 
	C175.160980,354.717163 182.157410,355.508057 188.043579,357.361603 
	C196.274918,359.953613 204.804459,361.477325 213.494537,362.078857 
	C218.903198,362.453278 223.428436,365.861816 228.500000,367.500000 
"/>
<path fill="none" opacity="1.000000" stroke="#000000" stroke-linecap="round" stroke-linejoin="round" stroke-width="8.000000"
	d="
M730.000000,297.500000 
	C729.067383,293.531921 730.772278,289.465698 729.615967,285.466461 
	C729.545227,285.221771 729.654602,283.970367 730.036255,283.531555 
	C737.180969,275.316437 738.773132,264.698425 742.569153,255.027130 
	C743.784729,251.930115 745.119507,248.631302 748.428406,246.941040 
	C753.701538,250.927368 753.155273,257.193298 754.354248,262.532745 
	C756.837463,273.590881 758.398926,284.853119 760.577209,295.984894 
	C761.068542,298.496033 761.916931,301.124847 764.000000,303.000000 
"/>
<path fill="none" opacity="1.000000" stroke="#000000" stroke-linecap="round" stroke-linejoin="round" stroke-width="2.000000"
	d="
M162.000000,338.000000 
	C164.515915,338.027649 166.903122,337.945404 169.041016,339.956390 
	C177.011658,347.453857 187.233612,349.896759 197.510590,351.946869 
	C203.953690,353.232208 210.500000,354.000031 217.000000,355.000031 
"/>
<path fill="none" opacity="1.000000" stroke="#000000" stroke-linecap="round" stroke-linejoin="round" stroke-width="8.000000"
	d="
M674.500000,232.500000 
	C674.633240,237.183304 674.384521,241.327820 671.235168,245.670532 
	C667.030334,251.468719 665.226379,258.785797 662.444031,265.476715 
	C658.771545,274.307831 656.939087,283.904816 651.475647,291.983551 
	C651.164062,292.444305 650.500000,292.666687 650.000000,293.000000 
"/>
<path fill="none" opacity="1.000000" stroke="#000000" stroke-linecap="round" stroke-linejoin="round" stroke-width="3.000000"
	d="
M623.000000,226.500000 
	C622.553345,239.168777 624.181702,251.918427 621.517395,264.503693 
	C621.382263,265.141724 621.235474,266.004669 621.539673,266.474304 
	C626.153259,273.597565 623.599182,281.928589 625.487427,289.503143 
	C627.464966,297.436096 626.891785,305.888123 630.428223,313.533203 
	C630.937988,314.635193 631.570618,315.096069 632.500000,315.500000 
"/>
<path fill="none" opacity="1.000000" stroke="#000000" stroke-linecap="round" stroke-linejoin="round" stroke-width="3.000000"
	d="
M211.500000,281.500000 
	C209.476898,283.447754 206.816040,282.465027 204.483551,282.914703 
	C197.401199,284.280304 190.273636,285.359833 183.489746,287.973389 
	C181.847778,288.605988 180.384125,289.398193 178.965393,290.453461 
	C177.340576,291.662079 176.882492,293.167633 177.008087,294.999451 
	C177.159546,297.208527 178.875443,297.148956 180.487640,297.549683 
	C184.054672,298.436371 187.106293,298.578613 190.077682,295.576904 
	C193.521057,292.098358 197.429092,289.024658 203.007950,289.952209 
	C204.827637,290.254700 206.402206,289.030121 208.000000,288.250000 
"/>
<path fill="none" opacity="1.000000" stroke="#000000" stroke-linecap="round" stroke-linejoin="round" stroke-width="13.000000"
	d="
M291.500000,330.500000 
	C288.748108,340.960754 279.621613,339.595764 271.995667,340.976013 
	C271.027374,341.151245 269.896271,340.718964 269.016205,341.043854 
	C261.061310,343.980408 253.683121,342.185211 246.500000,338.500000 
"/>
<path fill="none" opacity="1.000000" stroke="#000000" stroke-linecap="round" stroke-linejoin="round" stroke-width="6.000000"
	d="
M743.500000,283.500000 
	C743.500000,289.333344 743.694824,295.174713 743.454285,300.998108 
	C743.094910,309.697021 747.362000,316.528809 756.494873,319.515686 
	C758.325378,320.114319 760.183105,320.801483 760.750000,323.000000 
"/>
<path fill="none" opacity="1.000000" stroke="#000000" stroke-linecap="round" stroke-linejoin="round" stroke-width="3.000000"
	d="
M561.500000,221.500000 
	C562.644104,228.643936 562.023438,235.842850 561.896729,242.998169 
	C561.787598,249.164978 562.383789,255.272568 560.813293,261.578033 
	C559.463989,266.995605 555.305298,270.207947 553.413574,274.965637 
	C552.796509,276.517487 551.166626,277.666656 550.000000,279.000000 
"/>
<path fill="none" opacity="1.000000" stroke="#000000" stroke-linecap="round" stroke-linejoin="round" stroke-width="8.000000"
	d="
M542.500000,268.500000 
	C542.538574,271.144745 542.279907,273.302917 540.117798,275.610352 
	C532.299805,283.953857 527.261719,294.345978 520.546265,303.533844 
	C518.206177,306.735535 516.358948,310.288788 512.500000,312.000000 
"/>
<path fill="none" opacity="1.000000" stroke="#000000" stroke-linecap="round" stroke-linejoin="round" stroke-width="3.000000"
	d="
M524.000000,309.500000 
	C523.000000,313.000000 522.269104,316.607910 520.921692,319.968597 
	C519.661743,323.111115 511.277802,325.208588 508.574371,322.912445 
	C505.345337,320.169952 501.333649,318.922302 498.016022,316.478241 
	C495.345245,314.510712 490.880341,315.125732 490.660400,309.513306 
	C490.535736,306.332123 488.502533,303.157806 489.392883,299.474121 
	C489.840424,297.622559 489.282501,295.482178 488.977936,293.503387 
	C488.115662,287.901306 487.661316,287.695374 481.985870,289.454437 
	C481.424774,289.628326 480.666656,289.166656 480.000000,289.000000 
"/>
<path fill="none" opacity="1.000000" stroke="#000000" stroke-linecap="round" stroke-linejoin="round" stroke-width="11.000000"
	d="
M172.500000,327.500000 
	C175.540314,335.583588 183.461807,336.394623 190.054138,338.854950 
	C193.582611,340.171814 197.664932,340.013794 201.500443,340.496552 
	C206.349426,341.106842 209.043701,345.675720 213.500000,347.000000 
"/>
<path fill="none" opacity="1.000000" stroke="#000000" stroke-linecap="round" stroke-linejoin="round" stroke-width="8.000000"
	d="
M674.500000,284.000000 
	C668.315247,282.561890 667.359436,283.261719 667.518982,289.499512 
	C667.677246,295.682251 668.472229,301.665558 672.974426,306.523682 
	C675.518005,309.268311 673.125732,312.511536 673.500000,315.500000 
"/>
<path fill="none" opacity="1.000000" stroke="#000000" stroke-linecap="round" stroke-linejoin="round" stroke-width="3.000000"
	d="
M581.000000,203.500000 
	C580.740784,213.831833 581.646729,224.190750 580.451111,234.494324 
	C580.075806,237.728699 581.758301,240.445114 582.229004,243.464294 
	C583.206238,249.732025 581.090637,255.032867 578.988892,260.495728 
	C577.377686,264.683716 575.825806,268.908020 573.922424,272.963593 
	C573.150269,274.608673 572.569763,276.903076 570.000000,277.000000 
"/>
<path fill="none" opacity="1.000000" stroke="#000000" stroke-linecap="round" stroke-linejoin="round" stroke-width="8.000000"
	d="
M418.000000,373.500000 
	C414.594666,368.556885 409.826233,367.058380 403.996155,367.441528 
	C396.846954,367.911407 389.647064,366.990540 382.500000,368.000000 
"/>
<path fill="none" opacity="1.000000" stroke="#000000" stroke-linecap="round" stroke-linejoin="round" stroke-width="13.000000"
	d="
M439.500000,307.000000 
	C442.670837,310.826660 446.802185,313.206482 451.514130,314.446259 
	C454.743073,315.295807 457.889648,316.267365 461.027618,317.425171 
	C465.854004,319.205933 470.265961,317.269592 474.500000,315.000000 
"/>
<path fill="none" opacity="1.000000" stroke="#000000" stroke-linecap="round" stroke-linejoin="round" stroke-width="2.000000"
	d="
M323.500000,320.000000 
	C316.500000,320.000000 309.500000,319.996063 302.500000,320.002014 
	C299.874298,320.004272 297.147125,319.745300 295.500000,322.500000 
"/>
<path fill="none" opacity="1.000000" stroke="#000000" stroke-linecap="round" stroke-linejoin="round" stroke-width="8.000000"
	d="
M598.000000,263.000000 
	C598.333313,269.666656 598.268616,276.385223 599.128479,282.983246 
	C599.792664,288.079071 597.918945,291.840729 595.000000,295.500000 
"/>
<path fill="none" opacity="1.000000" stroke="#000000" stroke-linecap="round" stroke-linejoin="round" stroke-width="8.000000"
	d="
M674.500000,243.000000 
	C678.885620,248.579987 678.524963,255.659668 680.467590,262.009918 
	C681.688660,266.001343 682.119263,270.360413 686.500000,272.500000 
"/>
<path fill="none" opacity="1.000000" stroke="#000000" stroke-linecap="round" stroke-linejoin="round" stroke-width="8.000000"
	d="
M243.500000,292.000000 
	C249.950684,287.411224 257.146240,290.046875 263.998871,290.114075 
	C269.824982,290.171204 275.552155,292.563721 281.522186,290.566315 
	C284.039795,289.723999 286.031189,292.307465 288.500000,292.500000 
"/>
<path fill="none" opacity="1.000000" stroke="#000000" stroke-linecap="round" stroke-linejoin="round" stroke-width="3.000000"
	d="
M279.000000,289.000000 
	C270.896637,285.314331 262.103271,284.556091 253.496750,283.018219 
	C251.852783,282.724487 250.166672,282.666687 248.500000,282.500000 
"/>
<path fill="none" opacity="1.000000" stroke="#000000" stroke-linecap="round" stroke-linejoin="round" stroke-width="2.000000"
	d="
M293.500000,344.500000 
	C284.302734,350.175751 274.170135,352.733765 263.500000,353.500000 
"/>
<path fill="none" opacity="1.000000" stroke="#000000" stroke-linecap="round" stroke-linejoin="round" stroke-width="2.000000"
	d="
M187.000000,332.500000 
	C188.474396,331.226501 188.584991,330.112732 186.496292,329.512909 
	C179.477539,327.497375 173.163116,324.442657 167.875641,319.123627 
	C166.046402,317.283508 162.659897,318.775055 160.000000,318.500000 
"/>
<path fill="none" opacity="1.000000" stroke="#000000" stroke-linecap="round" stroke-linejoin="round" stroke-width="12.000000"
	d="
M896.500000,332.000000 
	C895.333313,331.833344 893.996704,331.220032 893.033020,331.586792 
	C890.515198,332.545074 889.121460,331.828674 887.942200,329.529663 
	C887.260132,328.199890 886.196838,326.451935 884.968689,326.113678 
	C875.604065,323.534698 866.719482,318.528046 856.502502,320.017303 
	C852.908936,320.541107 850.370911,323.428009 847.001404,324.504333 
	C845.371033,325.025085 843.638184,326.312317 842.031921,325.203735 
	C834.952271,320.317505 826.549744,321.687500 818.989685,321.544067 
	C814.108887,321.451447 809.361511,319.850250 804.500000,320.500000 
"/>
<path fill="none" opacity="1.000000" stroke="#000000" stroke-linecap="round" stroke-linejoin="round" stroke-width="11.000000"
	d="
M560.500000,276.500000 
	C561.693604,286.348267 563.251099,296.070831 570.000000,304.000000 
"/>
<path fill="none" opacity="1.000000" stroke="#000000" stroke-linecap="round" stroke-linejoin="round" stroke-width="8.000000"
	d="
M865.500000,319.500000 
	C865.674011,313.200317 863.840088,307.881531 856.974121,306.643341 
	C852.955139,305.918549 848.500671,305.769928 845.000000,309.000000 
"/>
<path fill="none" opacity="1.000000" stroke="#000000" stroke-linecap="round" stroke-linejoin="round" stroke-width="3.000000"
	d="
M642.500000,252.500000 
	C641.279846,261.525696 642.498718,270.506195 643.000000,279.500000 
"/>
<path fill="none" opacity="1.000000" stroke="#000000" stroke-linecap="round" stroke-linejoin="round" stroke-width="8.000000"
	d="
M417.500000,276.000000 
	C415.121033,278.763611 412.066986,279.669586 408.498962,279.525513 
	C403.001617,279.303619 397.478973,279.860931 392.000000,279.000000 
"/>
<path fill="none" opacity="1.000000" stroke="#000000" stroke-linecap="round" stroke-linejoin="round" stroke-width="2.000000"
	d="
M292.000000,309.500000 
	C292.120514,313.067291 289.698425,313.485107 286.999969,313.494049 
	C281.166687,313.513367 275.333344,313.500000 269.500000,313.500000 
"/>
<path fill="none" opacity="1.000000" stroke="#000000" stroke-linecap="round" stroke-linejoin="round" stroke-width="11.000000"
	d="
M222.000000,322.000000 
	C217.032730,322.912140 212.119904,324.416016 207.003143,323.964478 
	C203.037079,323.614471 200.853363,327.110077 197.500000,328.000000 
"/>
<path fill="none" opacity="1.000000" stroke="#000000" stroke-linecap="round" stroke-linejoin="round" stroke-width="11.000000"
	d="
M222.000000,304.000000 
	C218.833328,303.666656 215.653656,303.425323 212.502869,302.979736 
	C206.906876,302.188354 202.047165,303.968506 197.500000,307.000000 
"/>
<path fill="none" opacity="1.000000" stroke="#000000" stroke-linecap="round" stroke-linejoin="round" stroke-width="8.000000"
	d="
M785.000000,278.000000 
	C784.030273,279.424225 784.235779,281.126526 782.655029,282.659790 
	C778.685974,286.509552 775.489441,291.158234 772.006470,295.505157 
	C770.964844,296.805145 770.267883,298.587708 768.952148,299.424805 
	C764.087891,302.519653 762.694214,307.284058 762.000000,312.500000 
"/>
<path fill="none" opacity="1.000000" stroke="#000000" stroke-linecap="round" stroke-linejoin="round" stroke-width="7.000000"
	d="
M644.000000,291.500000 
	C640.205200,296.544159 639.594360,302.805817 637.418518,308.468689 
	C637.070984,309.372955 637.463806,310.506897 636.955566,310.948914 
	C629.592834,317.352386 632.020264,326.012939 631.445068,333.996033 
	C631.382874,334.858765 631.029968,335.666656 631.500000,336.500000 
"/>
<path fill="none" opacity="1.000000" stroke="#000000" stroke-linecap="round" stroke-linejoin="round" stroke-width="12.000000"
	d="
M700.500000,297.500000 
	C700.166687,298.833344 700.197815,300.447144 699.429443,301.445679 
	C697.382935,304.105286 698.198914,306.448761 699.477234,309.011353 
	C701.679871,313.427094 700.430725,317.620056 696.500000,319.500000 
"/>
<path fill="none" opacity="1.000000" stroke="#000000" stroke-linecap="round" stroke-linejoin="round" stroke-width="17.000000"
	d="
M475.500000,292.500000 
	C472.675873,294.825684 471.683289,297.636444 473.524261,300.986664 
	C474.753387,303.223389 474.905273,305.022888 473.644867,307.571655 
	C471.678375,311.548248 474.539520,315.498077 478.998627,316.011841 
	C483.372192,316.515747 487.268646,314.832977 491.250000,313.500000 
"/>
<path fill="none" opacity="1.000000" stroke="#000000" stroke-linecap="round" stroke-linejoin="round" stroke-width="6.000000"
	d="
M291.500000,350.500000 
	C290.102356,354.256042 286.255432,354.030273 283.448944,354.818085 
	C279.654388,355.883240 275.500000,355.666656 271.500000,356.000000 
"/>
<path fill="none" opacity="1.000000" stroke="#000000" stroke-linecap="round" stroke-linejoin="round" stroke-width="8.000000"
	d="
M785.000000,281.000000 
	C789.457458,283.767029 791.366699,288.639343 794.492554,292.506012 
	C795.539673,293.801239 796.221191,295.662354 797.550537,296.410065 
	C802.141235,298.992096 802.318237,303.089508 802.000000,307.500000 
"/>
<path fill="none" opacity="1.000000" stroke="#000000" stroke-linecap="round" stroke-linejoin="round" stroke-width="8.000000"
	d="
M597.000000,220.000000 
	C594.264343,222.448578 592.502441,225.318390 591.349182,228.952148 
	C589.929993,233.423920 587.904907,237.934082 583.000000,240.000000 
"/>
<path fill="none" opacity="1.000000" stroke="#000000" stroke-linecap="round" stroke-linejoin="round" stroke-width="3.000000"
	d="
M506.500000,253.500000 
	C507.599487,260.310577 506.934753,267.169647 506.935211,274.000000 
	C506.935669,280.496552 507.630981,287.024719 506.500000,293.500000 
"/>
<path fill="none" opacity="1.000000" stroke="#000000" stroke-linecap="round" stroke-linejoin="round" stroke-width="11.000000"
	d="
M173.500000,307.500000 
	C176.001526,312.857635 179.796188,316.348755 185.988510,317.095276 
	C188.510437,317.399292 190.527542,319.139130 191.000000,322.000000 
"/>
<path fill="none" opacity="1.000000" stroke="#000000" stroke-linecap="round" stroke-linejoin="round" stroke-width="8.000000"
	d="
M835.000000,293.500000 
	C839.745117,301.205078 846.401123,308.222260 844.000000,318.500000 
"/>
<path fill="none" opacity="1.000000" stroke="#000000" stroke-linecap="round" stroke-linejoin="round" stroke-width="2.000000"
	d="
M808.500000,303.500000 
	C806.329651,306.582764 806.007080,309.983521 807.034180,313.489990 
	C807.659790,315.625793 807.631165,317.580383 806.500000,319.500000 
"/>
<path fill="none" opacity="1.000000" stroke="#000000" stroke-linecap="round" stroke-linejoin="round" stroke-width="8.000000"
	d="
M689.000000,273.500000 
	C692.128601,275.895233 692.883423,279.488129 693.424316,283.011627 
	C693.825317,285.623505 694.902649,287.542908 697.000000,289.000000 
"/>
<path fill="none" opacity="1.000000" stroke="#000000" stroke-linecap="round" stroke-linejoin="round" stroke-width="8.000000"
	d="
M809.500000,284.500000 
	C809.189636,292.636230 815.696289,297.237640 819.782654,302.792053 
	C822.313477,306.232056 822.561890,308.966187 822.000000,312.500000 
"/>
<path fill="none" opacity="1.000000" stroke="#000000" stroke-linecap="round" stroke-linejoin="round" stroke-width="7.000000"
	d="
M833.500000,305.500000 
	C834.361023,310.809052 836.743774,315.927856 835.500000,321.500000 
"/>
<path fill="none" opacity="1.000000" stroke="#000000" stroke-linecap="round" stroke-linejoin="round" stroke-width="2.000000"
	d="
M676.500000,284.000000 
	C675.330627,284.164642 674.909851,284.879517 674.997559,286.000183 
	C675.336792,290.333069 675.666687,294.666656 676.000000,299.000000 
"/>
<path fill="none" opacity="1.000000" stroke="#000000" stroke-linecap="round" stroke-linejoin="round" stroke-width="10.000000"
	d="
M784.750000,302.500000 
	C786.874573,307.038971 783.772156,310.590149 782.514954,314.504822 
	C781.013977,319.178467 776.728455,319.654449 773.000000,321.000000 
"/>
<path fill="none" opacity="1.000000" stroke="#000000" stroke-linecap="round" stroke-linejoin="round" stroke-width="6.000000"
	d="
M829.500000,306.500000 
	C829.614197,311.563843 826.649292,315.990662 826.500000,321.000000 
"/>
<path fill="none" opacity="1.000000" stroke="#000000" stroke-linecap="round" stroke-linejoin="round" stroke-width="8.000000"
	d="
M834.750000,289.500000 
	C835.087646,290.696747 835.598328,292.309753 834.460754,292.927795 
	C829.369080,295.693909 827.526611,301.737915 822.500000,304.500000 
"/>
<path fill="none" opacity="1.000000" stroke="#000000" stroke-linecap="round" stroke-linejoin="round" stroke-width="8.000000"
	d="
M561.000000,265.000000 
	C564.557129,268.765503 566.778015,273.491760 569.785156,277.655182 
	C571.808044,280.455994 571.033264,284.800018 571.000000,288.500000 
"/>
<path fill="none" opacity="1.000000" stroke="#000000" stroke-linecap="round" stroke-linejoin="round" stroke-width="8.000000"
	d="
M707.500000,278.500000 
	C702.961182,281.499084 701.365906,287.136108 696.690430,290.282898 
	C695.148560,291.320648 695.833313,295.666656 695.500000,298.500000 
"/>
<path fill="none" opacity="1.000000" stroke="#000000" stroke-linecap="round" stroke-linejoin="round" stroke-width="2.000000"
	d="
M765.500000,268.000000 
	C765.500000,269.833344 765.500000,271.666656 765.500000,273.500000 
	C765.500000,279.592255 765.807556,279.976746 771.612488,281.020233 
	C772.855530,283.682373 770.871155,286.954102 773.000000,289.500000 
"/>
<path fill="none" opacity="1.000000" stroke="#000000" stroke-linecap="round" stroke-linejoin="round" stroke-width="3.000000"
	d="
M525.500000,265.500000 
	C524.661865,273.354706 524.786743,281.188934 526.000000,289.000000 
"/>
<path fill="none" opacity="1.000000" stroke="#000000" stroke-linecap="round" stroke-linejoin="round" stroke-width="8.000000"
	d="
M690.000000,261.500000 
	C690.619873,265.001312 690.233521,268.705383 688.321716,271.372192 
	C686.468567,273.957245 684.778625,276.122681 684.311523,279.473724 
	C684.026123,281.521027 683.988770,283.485168 684.000000,285.500000 
"/>
<path fill="none" opacity="1.000000" stroke="#000000" stroke-linecap="round" stroke-linejoin="round" stroke-width="8.000000"
	d="
M707.750000,274.500000 
	C707.242737,279.133789 711.149353,281.322693 713.645203,283.856964 
	C717.068726,287.333130 717.893982,291.008301 717.572449,295.505188 
	C717.455627,297.139648 718.166687,298.833344 718.500000,300.500000 
"/>
<path fill="none" opacity="1.000000" stroke="#000000" stroke-linecap="round" stroke-linejoin="round" stroke-width="11.000000"
	d="
M646.000000,279.000000 
	C640.404480,280.526093 639.835388,281.768372 642.490723,286.505219 
	C643.218811,287.804077 643.568054,290.073975 644.541321,290.358521 
	C653.473877,292.970032 649.335083,300.071564 650.000000,305.500000 
"/>
<path fill="none" opacity="1.000000" stroke="#000000" stroke-linecap="round" stroke-linejoin="round" stroke-width="5.000000"
	d="
M752.000000,309.000000 
	C754.435913,306.775635 754.211182,303.929413 754.047852,300.997345 
	C753.931335,298.905701 752.533813,299.665894 751.500000,299.500000 
"/>
<path fill="none" opacity="1.000000" stroke="#000000" stroke-linecap="round" stroke-linejoin="round" stroke-width="6.000000"
	d="
M645.500000,303.500000 
	C645.364624,307.701813 645.152466,311.919617 648.000000,315.500000 
"/>
<path fill="none" opacity="1.000000" stroke="#000000" stroke-linecap="round" stroke-linejoin="round" stroke-width="8.000000"
	d="
M724.000000,268.500000 
	C724.166687,269.500000 724.336670,270.499451 724.499451,271.500092 
	C725.611755,278.340240 722.112061,283.163605 717.500000,287.500000 
"/>
<path fill="none" opacity="1.000000" stroke="#000000" stroke-linecap="round" stroke-linejoin="round" stroke-width="3.000000"
	d="
M533.500000,294.500000 
	C532.144958,298.072449 531.925049,301.590881 534.000000,305.000000 
"/>
<path fill="none" opacity="1.000000" stroke="#000000" stroke-linecap="round" stroke-linejoin="round" stroke-width="5.000000"
	d="
M701.500000,321.000000 
	C704.604919,323.617157 707.760803,325.725464 711.500000,322.000000 
"/>
<path fill="none" opacity="1.000000" stroke="#000000" stroke-linecap="round" stroke-linejoin="round" stroke-width="4.000000"
	d="
M299.000000,258.000000 
	C300.833313,261.166687 302.666656,264.333344 304.500000,267.500000 
"/>
<path fill="none" opacity="1.000000" stroke="#000000" stroke-linecap="round" stroke-linejoin="round" stroke-width="2.000000"
	d="
M652.500000,306.500000 
	C652.876282,309.646057 651.265747,312.460968 651.000000,315.500000 
"/>
<path fill="none" opacity="1.000000" stroke="#000000" stroke-linecap="round" stroke-linejoin="round" stroke-width="4.000000"
	d="
M802.500000,322.000000 
	C799.734131,323.720306 797.466797,327.684021 793.500000,324.000000 
"/>
<path fill="none" opacity="1.000000" stroke="#000000" stroke-linecap="round" stroke-linejoin="round" stroke-width="3.000000"
	d="
M713.500000,297.500000 
	C713.378723,301.000885 715.752258,303.531525 717.000000,306.500000 
"/>
<path fill="none" opacity="1.000000" stroke="#000000" stroke-linecap="round" stroke-linejoin="round" stroke-width="3.000000"
	d="
M463.000000,303.500000 
	C462.039398,306.508728 460.890106,309.428680 459.000000,312.000000 
"/>
<path fill="none" opacity="1.000000" stroke="#000000" stroke-linecap="round" stroke-linejoin="round" stroke-width="4.000000"
	d="
M734.500000,296.500000 
	C733.199463,299.108093 733.455261,302.397095 731.000000,304.500000 
"/>
<path fill="none" opacity="1.000000" stroke="#000000" stroke-linecap="round" stroke-linejoin="round" stroke-width="2.000000"
	d="
M659.500000,254.500000 
	C659.733643,256.494415 658.950745,258.573547 660.000000,260.500000 
"/>
</svg>