<svg width="40" height="40" viewBox="0 0 40 40" fill="none" xmlns="http://www.w3.org/2000/svg">
  <!-- FinKey logomark inspired by the complex Logo.svg design -->
  <g transform="translate(2, 8)">
    <!-- Key head (circular) with multiple rings -->
    <circle cx="8" cy="8" r="7" fill="none" stroke="#242629" stroke-width="1.5"/>
    <circle cx="8" cy="8" r="5.5" fill="none" stroke="#242629" stroke-width="1"/>
    <circle cx="8" cy="8" r="4" fill="none" stroke="#242629" stroke-width="0.8"/>

    <!-- Euro symbol in center -->
    <text x="8" y="10.5" text-anchor="middle" font-family="Arial, sans-serif" font-size="4" fill="#242629" font-weight="bold">€</text>

    <!-- Key shaft -->
    <rect x="15" y="7.2" width="18" height="1.6" fill="#242629"/>

    <!-- Key teeth -->
    <rect x="29" y="5.5" width="1.5" height="2" fill="#242629"/>
    <rect x="31" y="6" width="1.5" height="1.5" fill="#242629"/>
    <rect x="29" y="8.8" width="1.5" height="1.8" fill="#242629"/>
    <rect x="31" y="9.5" width="1.5" height="1.2" fill="#242629"/>

    <!-- Financial chart elements on shaft -->
    <path d="M16 6.2 L18 6.8 L20 6 L22 6.5 L24 5.8 L26 6.2 L28 5.9" stroke="#666666" stroke-width="0.6" fill="none"/>
    <path d="M16 9.8 L18 9.2 L20 10 L22 9.5 L24 10.2 L26 9.8 L28 10.1" stroke="#666666" stroke-width="0.6" fill="none"/>
    <path d="M17 8 L19 7.6 L21 8.3 L23 7.9 L25 8.2 L27 8" stroke="#666666" stroke-width="0.5" fill="none"/>
  </g>
</svg>