<svg width="48" height="48" viewBox="0 0 48 48" fill="none" xmlns="http://www.w3.org/2000/svg">
  <!-- Rounded square background -->
  <rect width="48" height="48" rx="12" fill="#2D3748"/>

  <!-- FinKey Logo inspired by complex Logo.svg design -->
  <g transform="translate(6, 14)">
    <!-- Key head (circular) - white on dark background with multiple rings -->
    <circle cx="8" cy="8" r="6" fill="none" stroke="white" stroke-width="1.2"/>
    <circle cx="8" cy="8" r="4.5" fill="none" stroke="white" stroke-width="0.8"/>
    <circle cx="8" cy="8" r="3" fill="none" stroke="white" stroke-width="0.6"/>

    <!-- Euro symbol in center -->
    <text x="8" y="10" text-anchor="middle" font-family="Arial, sans-serif" font-size="3" fill="white" font-weight="bold">€</text>

    <!-- Key shaft -->
    <rect x="14" y="7.4" width="16" height="1.2" fill="white"/>

    <!-- Key teeth -->
    <rect x="27" y="6" width="1.2" height="1.5" fill="white"/>
    <rect x="28.5" y="6.4" width="1.2" height="1.2" fill="white"/>
    <rect x="27" y="8.5" width="1.2" height="1.4" fill="white"/>
    <rect x="28.5" y="9" width="1.2" height="1" fill="white"/>

    <!-- Financial chart elements on shaft inspired by Logo.svg -->
    <path d="M15 6.5 L17 7.2 L19 6 L21 6.8 L23 5.8 L25 6.5" stroke="#4299E1" stroke-width="0.6" fill="none"/>
    <path d="M15 9 L17 8.5 L19 9.5 L21 8.8 L23 9.8 L25 9.2" stroke="#4299E1" stroke-width="0.6" fill="none"/>
    <path d="M15.5 7.8 L17.5 7.5 L19.5 8 L21.5 7.7 L23.5 7.9" stroke="#38B2AC" stroke-width="0.5" fill="none"/>
  </g>
</svg>