<svg width="120" height="40" viewBox="0 0 120 40" fill="none" xmlns="http://www.w3.org/2000/svg">
  <!-- FinKey main logo inspired by the complex Logo.svg design -->

  <!-- Key head (circular) with multiple rings -->
  <circle cx="20" cy="20" r="16" fill="none" stroke="#2D3748" stroke-width="2"/>
  <circle cx="20" cy="20" r="12" fill="none" stroke="#2D3748" stroke-width="1.5"/>
  <circle cx="20" cy="20" r="8" fill="none" stroke="#2D3748" stroke-width="1"/>

  <!-- Euro symbol in center -->
  <text x="20" y="26" text-anchor="middle" font-family="Arial, sans-serif" font-size="8" fill="#2D3748" font-weight="bold">€</text>

  <!-- Key shaft -->
  <rect x="36" y="18" width="60" height="4" fill="#2D3748"/>

  <!-- Key teeth -->
  <rect x="88" y="12" width="3" height="6" fill="#2D3748"/>
  <rect x="92" y="14" width="3" height="4" fill="#2D3748"/>
  <rect x="88" y="22" width="3" height="6" fill="#2D3748"/>
  <rect x="92" y="24" width="3" height="3" fill="#2D3748"/>

  <!-- Financial chart elements on shaft -->
  <path d="M40 16 L45 14 L50 17 L55 15 L60 16 L65 14 L70 15 L75 14 L80 16" stroke="#4299E1" stroke-width="1.5" fill="none"/>
  <path d="M40 24 L45 26 L50 23 L55 25 L60 24 L65 26 L70 25 L75 26 L80 24" stroke="#4299E1" stroke-width="1.5" fill="none"/>
  <path d="M42 20 L47 18 L52 21 L57 19 L62 20 L67 18 L72 19 L77 18 L78 20" stroke="#38B2AC" stroke-width="1" fill="none"/>

  <!-- FinKey text -->
  <text x="100" y="16" font-family="Arial, sans-serif" font-size="10" fill="#2D3748" font-weight="bold">Fin</text>
  <text x="100" y="28" font-family="Arial, sans-serif" font-size="10" fill="#2D3748" font-weight="bold">Key</text>
</svg>